<?xml version="1.0" encoding="UTF-8" standalone="no"?>
<svg
   xmlns:dc="http://purl.org/dc/elements/1.1/"
   xmlns:cc="http://creativecommons.org/ns#"
   xmlns:rdf="http://www.w3.org/1999/02/22-rdf-syntax-ns#"
   xmlns:svg="http://www.w3.org/2000/svg"
   xmlns="http://www.w3.org/2000/svg"
   xmlns:sodipodi="http://sodipodi.sourceforge.net/DTD/sodipodi-0.dtd"
   xmlns:inkscape="http://www.inkscape.org/namespaces/inkscape"
   width="195.72339mm"
   height="110.64213mm"
   viewBox="0 0 195.72339 110.64213"
   version="1.1"
   id="svg8"
   inkscape:version="1.0 (6e3e5246a0, 2020-05-07)"
   sodipodi:docname="logosvg.svg">
  <defs
     id="defs2">
    <inkscape:path-effect
       only_selected="false"
       apply_with_weight="true"
       apply_no_weight="true"
       helper_size="0"
       steps="2"
       weight="33.333333"
       lpeversion="1"
       is_visible="true"
       id="path-effect887"
       effect="bspline" />
    <inkscape:path-effect
       only_selected="false"
       apply_with_weight="true"
       apply_no_weight="true"
       helper_size="0"
       steps="2"
       weight="33.333333"
       lpeversion="1"
       is_visible="true"
       id="path-effect885"
       effect="bspline" />
    <inkscape:path-effect
       effect="bspline"
       id="path-effect861"
       is_visible="true"
       lpeversion="1"
       weight="33.333333"
       steps="2"
       helper_size="0"
       apply_no_weight="true"
       apply_with_weight="true"
       only_selected="false" />
    <inkscape:path-effect
       effect="bspline"
       id="path-effect857"
       is_visible="true"
       lpeversion="1"
       weight="33.333333"
       steps="2"
       helper_size="0"
       apply_no_weight="true"
       apply_with_weight="true"
       only_selected="false" />
    <inkscape:path-effect
       effect="bspline"
       id="path-effect839"
       is_visible="true"
       lpeversion="1"
       weight="33.333333"
       steps="2"
       helper_size="0"
       apply_no_weight="true"
       apply_with_weight="true"
       only_selected="false" />
  </defs>
  <sodipodi:namedview
     id="base"
     pagecolor="#ffffff"
     bordercolor="#666666"
     borderopacity="1.0"
     inkscape:pageopacity="0.0"
     inkscape:pageshadow="2"
     inkscape:zoom="0.7"
     inkscape:cx="267.32097"
     inkscape:cy="261.20998"
     inkscape:document-units="mm"
     inkscape:current-layer="g896"
     inkscape:document-rotation="0"
     showgrid="false"
     inkscape:window-width="1360"
     inkscape:window-height="732"
     inkscape:window-x="0"
     inkscape:window-y="36"
     inkscape:window-maximized="0" />
  <metadata
     id="metadata5">
    <rdf:RDF>
      <cc:Work
         rdf:about="">
        <dc:format>image/svg+xml</dc:format>
        <dc:type
           rdf:resource="http://purl.org/dc/dcmitype/StillImage" />
        <dc:title />
      </cc:Work>
    </rdf:RDF>
  </metadata>
  <g
     inkscape:label="Layer 1"
     inkscape:groupmode="layer"
     id="layer1"
     transform="translate(50.768831,-21.129262)">
    <path
       style="fill:#7510f7;fill-opacity:1;stroke:#7510f7;stroke-width:0.264583px;stroke-linecap:butt;stroke-linejoin:miter;stroke-opacity:1"
       d="m 81.787631,30.949621 c -0.03861,0.09985 -0.115769,0.299418 -0.152153,4.637674 -0.03638,4.338255 -0.03204,12.814739 0.312831,17.289866 0.344873,4.475127 1.029951,4.948764 4.316266,6.722436 3.286316,1.773673 9.173606,4.847294 14.773925,7.843018 5.60031,2.995724 10.91332,5.913367 13.58381,7.407492 2.6705,1.494126 2.69857,1.56455 2.80377,1.564525 0.10519,-2.5e-5 0.29157,-0.07167 1.78098,-0.964354 1.48942,-0.892678 4.28386,-2.607102 8.0788,-4.753053 3.79494,-2.14595 8.5901,-4.723279 10.91152,-6.048443 2.32141,-1.325164 2.16879,-1.398312 1.02581,-2.011579 -1.14298,-0.613266 -3.27622,-1.766616 -8.98474,-4.881406 C 124.52992,54.641008 115.24621,49.564828 105.96262,44.488719 97.917166,39.942402 89.872027,35.396262 85.849143,33.123015 81.826259,30.849768 81.826239,30.849768 81.787631,30.949621 Z"
       id="path855"
       inkscape:path-effect="#path-effect857"
       inkscape:original-d="m 81.826239,30.849768 c -0.0769,0.199829 -0.154059,0.399394 -0.231484,0.598694 0.0046,8.477088 0.0089,16.953572 0.01302,25.429961 0.685369,0.47392 1.370447,0.947557 2.055273,1.420938 5.887791,3.074008 11.775082,6.147628 17.662222,9.221045 5.31349,2.918024 10.6265,5.835666 15.93935,8.753103 0.0283,0.07068 0.0564,0.141093 0.0842,0.211243 0.18998,-0.05057 0.36895,-0.141476 0.55303,-0.212612 2.79482,-1.71423 5.58926,-3.428656 8.3835,-5.143381 4.79562,-2.577166 9.59078,-5.154494 14.38576,-7.732138 -0.15237,-0.07289 -0.30499,-0.146041 -0.45789,-0.219459 -2.13306,-1.15313 -4.2663,-2.306479 -6.39984,-3.460115 -9.28351,-5.075946 -27.85076,-15.228328 -27.85076,-15.228328 0,0 -16.090643,-9.092369 -24.136361,-13.638951 z" />
    <path
       style="fill:#974df7;fill-opacity:1;stroke:#974df7;stroke-width:0.264583px;stroke-linecap:butt;stroke-linejoin:miter;stroke-opacity:1"
       d="m 139.93891,63.44287 c -0.39125,0.281556 -1.1738,0.84471 -3.20619,2.022318 -2.03239,1.177609 -5.31452,2.969615 -8.9237,4.995787 -3.60918,2.026171 -7.54517,4.286377 -15.23391,8.53354 -7.68874,4.247164 -19.129702,10.480991 -24.870661,13.608592 -5.74096,3.127602 -5.793034,3.15477 -5.810605,3.258512 -0.01757,0.103743 -0.0062,0.286679 -0.02157,3.060459 -0.01535,2.773782 -0.05737,8.138212 -0.08332,12.298602 -0.02595,4.1604 -0.03584,7.11653 -0.01387,8.62124 0.02197,1.50471 0.07552,1.55792 0.512505,1.40719 0.436986,-0.15074 1.257506,-0.5051 5.966955,-3.05093 4.70945,-2.54582 13.307514,-7.28291 23.285484,-12.7848 9.97798,-5.501899 21.33525,-11.768257 27.11802,-14.926992 5.78277,-3.158736 5.99071,-3.209722 6.06539,-3.674449 0.0747,-0.464728 0.0162,-1.343481 0.0211,-3.714818 0.005,-2.371337 0.0731,-6.235064 0.0775,-9.45207 0.004,-3.217006 -0.055,-5.787121 -0.19447,-7.118563 -0.13951,-1.331442 -0.35944,-1.424022 -1.02486,-1.735276 -0.66543,-0.311255 -1.7763,-0.841179 -2.37432,-1.127346 -0.59802,-0.286166 -0.68312,-0.328543 -0.74733,-0.371606 -0.0642,-0.04306 -0.10742,-0.08687 -0.12916,-0.108909 -0.0217,-0.02204 -0.0217,-0.02204 -0.41299,0.259519 z"
       id="path859"
       inkscape:path-effect="#path-effect861"
       inkscape:original-d="m 140.33016,63.161314 c -0.78228,0.563414 -1.56484,1.126564 -2.34765,1.689449 -3.28201,1.792346 -6.56414,3.584356 -9.84661,5.376138 -3.93588,2.260557 -7.87187,4.520763 -11.8082,6.780749 -11.44116,6.234343 -22.88212,12.468172 -34.323581,18.701861 -0.04139,0.01974 -0.09254,0.04868 -0.139211,0.07263 0.01162,0.183205 0.02297,0.366141 0.03404,0.548815 -0.04176,5.364904 -0.08378,10.729334 -0.12606,16.093604 -0.0096,2.95652 -0.0195,5.91265 -0.02966,8.86858 0.05382,0.0535 0.107379,0.1067 0.160671,0.15966 0.820817,-0.35411 1.641338,-0.70847 2.46161,-1.06311 8.598661,-4.73701 17.196721,-9.4741 25.794681,-14.21155 11.35799,-6.266343 22.71526,-12.532703 34.0725,-18.799454 0.20821,-0.05072 0.41615,-0.101711 0.62383,-0.152961 -0.0582,-0.878528 -0.1166,-1.757283 -0.17529,-2.636321 0.0685,-3.863615 0.13666,-7.727342 0.2046,-11.591412 -0.0591,-2.569953 -0.1185,-5.140068 -0.17815,-7.710498 -0.21967,-0.09232 -0.4396,-0.184899 -0.6598,-0.277744 -1.11065,-0.52968 -2.22152,-1.059603 -3.33267,-1.589801 -0.0849,-0.04213 -0.16999,-0.08452 -0.25538,-0.127175 -0.043,-0.04356 -0.0862,-0.08738 -0.12967,-0.131461 z" />
    <g
       id="g902"
       style="fill:#974df7;fill-opacity:1">
      <g
         id="g896"
         style="fill:#974df7;fill-opacity:1">
        <path
           inkscape:original-d="m 12.359495,30.951162 c 0.0769,0.199829 0.154059,0.399394 0.231484,0.598694 -0.0046,8.477088 -0.0089,16.953572 -0.01302,25.429961 -0.685369,0.473921 -1.370447,0.947557 -2.055273,1.420939 C 4.63489,61.474761 -1.2524,64.548384 -7.13954,67.6218 c -5.31349,2.918023 -10.6265,5.835664 -15.93935,8.753104 -0.0283,0.0707 -0.0564,0.14109 -0.0842,0.21124 -0.18998,-0.0506 -0.36895,-0.14147 -0.55303,-0.21261 -2.79482,-1.71423 -5.58926,-3.428656 -8.3835,-5.143381 -4.79562,-2.577166 -9.59078,-5.154494 -14.38576,-7.732139 0.15237,-0.07289 0.30499,-0.146039 0.45789,-0.219458 2.13306,-1.153131 4.2663,-2.306479 6.39984,-3.460115 9.28351,-5.075946 27.85076,-15.228329 27.85076,-15.228329 0,0 16.09065,-9.092368 24.136365,-13.63895 z"
           inkscape:path-effect="#path-effect887"
           id="path855-3"
           d="m 12.398103,31.051015 c 0.03861,0.09985 0.115769,0.299418 0.152153,4.637674 0.03638,4.338255 0.03204,12.814739 -0.312831,17.289866 -0.344874,4.475127 -1.029951,4.948764 -4.3162679,6.722437 -3.2863169,1.773674 -9.1736084,4.847294 -14.7739224,7.843018 -5.6003137,2.995723 -10.9133227,5.913366 -13.5838227,7.4075 -2.670499,1.494135 -2.698562,1.56454 -2.803765,1.564513 -0.105202,-2.7e-5 -0.291563,-0.07167 -1.78098,-0.964351 -1.489417,-0.892678 -4.283858,-2.607102 -8.078797,-4.753053 -3.794939,-2.145951 -8.590098,-4.72328 -10.911516,-6.048444 -2.321418,-1.325163 -2.168797,-1.398311 -1.025816,-2.011578 1.142981,-0.613266 3.27622,-1.766616 8.984745,-4.881406 5.708526,-3.11479 14.99224,-8.190969 24.275827,-13.267079 8.045455,-4.546317 16.0905993,-9.092458 20.1134821,-11.365704 4.0228829,-2.273246 4.0229029,-2.273246 4.0615109,-2.173393 z"
           style="fill:#7510f7;fill-opacity:1;stroke:#7510f7;stroke-width:0.264583px;stroke-linecap:butt;stroke-linejoin:miter;stroke-opacity:1" />
        <path
           inkscape:original-d="m -46.14443,63.262707 c 0.78228,0.563414 1.56484,1.126564 2.34765,1.689449 3.28201,1.792346 6.56414,3.584356 9.84661,5.376138 3.93588,2.260558 7.87187,4.52076 11.8082,6.78075 11.44116,6.23434 22.88212,12.46817 34.323585,18.70186 0.04139,0.0197 0.09254,0.0487 0.139211,0.0726 -0.01162,0.18321 -0.02297,0.36614 -0.03404,0.54882 0.04176,5.364896 0.08378,10.729326 0.12606,16.093596 0.0096,2.95652 0.0195,5.91265 0.02966,8.86858 -0.05382,0.0535 -0.107379,0.1067 -0.160671,0.15966 -0.820817,-0.35411 -1.641338,-0.70847 -2.46161,-1.06311 -8.598665,-4.73701 -17.196725,-9.4741 -25.794685,-14.21155 -11.35799,-6.26634 -22.71526,-12.532696 -34.0725,-18.799446 -0.20821,-0.0507 -0.41615,-0.10171 -0.62383,-0.15296 0.0582,-0.87853 0.1166,-1.75729 0.17529,-2.63633 -0.0685,-3.86361 -0.13666,-7.72734 -0.2046,-11.591408 0.0591,-2.569953 0.1185,-5.140068 0.17815,-7.710498 0.21967,-0.09232 0.4396,-0.184899 0.6598,-0.277744 1.11065,-0.529679 2.22152,-1.059603 3.33267,-1.589801 0.0849,-0.04213 0.16999,-0.08452 0.25538,-0.127175 0.043,-0.04356 0.0862,-0.08738 0.12967,-0.131461 z"
           inkscape:path-effect="#path-effect885"
           id="path859-6"
           d="m -45.753181,63.544263 c 0.391248,0.281556 1.173805,0.84471 3.206193,2.022318 2.032389,1.177609 5.31452,2.969615 8.923699,4.995787 3.609178,2.026172 7.545167,4.286377 15.233908,8.53354 7.688741,4.247163 19.12970344,10.48099 24.8706582,13.608584 5.7409548,3.127594 5.7930578,3.154767 5.8106208,3.258502 0.01756,0.103736 0.0062,0.286666 0.02156,3.060445 0.01535,2.773781 0.05737,8.138211 0.08332,12.298601 0.02595,4.1604 0.03584,7.11653 0.01387,8.62124 -0.02197,1.50471 -0.07552,1.55792 -0.512505,1.40719 -0.436986,-0.15074 -1.257506,-0.5051 -5.9669571,-3.05093 -4.709451,-2.54582 -13.3075107,-7.28291 -23.2854859,-12.7848 -9.977976,-5.5019 -21.335246,-11.768251 -27.118017,-14.926985 -5.782772,-3.158733 -5.990717,-3.20972 -6.065389,-3.674449 -0.07467,-0.464728 -0.01624,-1.343486 -0.02112,-3.714822 -0.0049,-2.371335 -0.07307,-6.235065 -0.07749,-9.45207 -0.0044,-3.217005 0.05497,-5.78712 0.194472,-7.118562 0.139503,-1.331442 0.359433,-1.424022 1.024858,-1.735276 0.665425,-0.311255 1.776294,-0.841179 2.374317,-1.127346 0.598023,-0.286166 0.683119,-0.328543 0.747332,-0.371606 0.06421,-0.04306 0.107425,-0.08687 0.129162,-0.108909 0.02174,-0.02204 0.02174,-0.02201 0.412987,0.259548 z"
           style="fill:#974df7;fill-opacity:1;stroke:#974df7;stroke-width:0.264583px;stroke-linecap:butt;stroke-linejoin:miter;stroke-opacity:1" />
      </g>
    </g>
    <path
       style="fill:#440966;fill-opacity:1;stroke:#440966;stroke-width:0.264583px;stroke-linecap:butt;stroke-linejoin:miter;stroke-opacity:1"
       d="M 51.292693,21.387454 16.79771,131.63847 43.01691,131.54667 76.962787,21.262429 Z"
       id="path912" />
  </g>
</svg>
